<svg id="Layer_1" data-name="Layer 1" xmlns="http://www.w3.org/2000/svg" viewBox="0 0 164.48 54.45"><defs><style>.cls-1,.cls-2{fill:#444459;}.cls-2{stroke:#eb5e2b;stroke-width:1.6px;}.cls-2,.cls-3{stroke-linecap:round;stroke-miterlimit:10;}.cls-3{fill:#010101;stroke:#444459;stroke-width:1.48px;}</style></defs><path class="cls-1" d="M16.45,52.66a1.78,1.78,0,0,1-.68-1.48,2.24,2.24,0,0,1,.61-1.56l11-12.6H17.71a1.57,1.57,0,0,1-1.6-1.6,1.58,1.58,0,0,1,.46-1.16,1.5,1.5,0,0,1,1.14-.48H29.24a2.14,2.14,0,0,1,1.6.61A2.09,2.09,0,0,1,31.45,36a2.34,2.34,0,0,1-.53,1.52L20.26,50H30a1.61,1.61,0,0,1,1.64,1.64,1.55,1.55,0,0,1-.47,1.14,1.65,1.65,0,0,1-1.17.45H18.17A2.69,2.69,0,0,1,16.45,52.66Z" transform="translate(-5.03 -10.05)"/><path class="cls-1" d="M39.64,52.32a8.55,8.55,0,0,1-3.41-3.56,12.19,12.19,0,0,1,0-10.55,8.46,8.46,0,0,1,3.41-3.55,11,11,0,0,1,10.24,0,8.61,8.61,0,0,1,3.42,3.55,12,12,0,0,1,0,10.55,8.69,8.69,0,0,1-3.42,3.56,10.15,10.15,0,0,1-5.1,1.25A10.17,10.17,0,0,1,39.64,52.32Zm8.12-2.63a5.79,5.79,0,0,0,2.36-2.28,7.63,7.63,0,0,0,.94-4,7.56,7.56,0,0,0-.94-3.92,5.7,5.7,0,0,0-2.36-2.27,6.62,6.62,0,0,0-3-.7,6.74,6.74,0,0,0-3,.7,5.6,5.6,0,0,0-2.34,2.27,7.66,7.66,0,0,0-.92,3.92,7.74,7.74,0,0,0,.92,4,5.69,5.69,0,0,0,2.34,2.28,6.63,6.63,0,0,0,3,.72A6.51,6.51,0,0,0,47.76,49.69Z" transform="translate(-5.03 -10.05)"/><path class="cls-1" d="M82.52,57.53,75.68,50a8.81,8.81,0,0,0,.76-1.21,11.9,11.9,0,0,0,0-10.54A8.57,8.57,0,0,0,73,34.66a11,11,0,0,0-10.24,0,8.41,8.41,0,0,0-3.4,3.56,11.09,11.09,0,0,0-1.21,5.26,11.14,11.14,0,0,0,1.21,5.28,8.52,8.52,0,0,0,3.4,3.56,10.27,10.27,0,0,0,5.14,1.25,10.41,10.41,0,0,0,4.43-.91.85.85,0,0,0,.14.19l6.84,7.56a1.45,1.45,0,0,0,2,.11l1-1A1.44,1.44,0,0,0,82.52,57.53Zm-14.6-7.11a6.47,6.47,0,0,1-3-.73,5.65,5.65,0,0,1-2.35-2.28,7.76,7.76,0,0,1-.91-4,7.66,7.66,0,0,1,.91-3.92,5.48,5.48,0,0,1,2.35-2.26,6.71,6.71,0,0,1,6,0,5.67,5.67,0,0,1,2.36,2.26,7.56,7.56,0,0,1,.93,3.92,7.66,7.66,0,0,1-.93,4,5.85,5.85,0,0,1-2.36,2.28A6.47,6.47,0,0,1,67.92,50.42Z" transform="translate(-5.03 -10.05)"/><path class="cls-1" d="M83,52.89a1.66,1.66,0,0,1-.49-1.22V35.34A1.74,1.74,0,0,1,83,34.1a1.64,1.64,0,0,1,1.22-.51A1.74,1.74,0,0,1,86,35.34V36.9a9.58,9.58,0,0,1,2.57-2.51,7,7,0,0,1,3.9-1,6,6,0,0,1,3.66,1.14,6.4,6.4,0,0,1,2.17,2.78,7.66,7.66,0,0,1,7-3.92,5.73,5.73,0,0,1,3.56,1.07,6.29,6.29,0,0,1,2.11,2.74,9.06,9.06,0,0,1,.69,3.5v11a1.61,1.61,0,0,1-.52,1.22,1.7,1.7,0,0,1-1.23.49,1.69,1.69,0,0,1-1.72-1.71V41.39a6.06,6.06,0,0,0-.87-3.63,3.53,3.53,0,0,0-3-1.16,5,5,0,0,0-3.21,1,9.56,9.56,0,0,0-2.27,2.64V51.67a1.64,1.64,0,0,1-.51,1.22,1.74,1.74,0,0,1-1.24.49,1.67,1.67,0,0,1-1.71-1.71V41.39a6.06,6.06,0,0,0-.88-3.63,3.52,3.52,0,0,0-3-1.16,5,5,0,0,0-3.21,1A9.73,9.73,0,0,0,86,40.25V51.67a1.64,1.64,0,0,1-.51,1.22,1.72,1.72,0,0,1-1.24.49A1.66,1.66,0,0,1,83,52.89Z" transform="translate(-5.03 -10.05)"/><path class="cls-1" d="M118.78,52.81a1.89,1.89,0,0,1-.57-1.4V24.34a2,2,0,0,1,.57-1.42,1.85,1.85,0,0,1,1.4-.59,2,2,0,0,1,2,2V51.41a1.87,1.87,0,0,1-.59,1.4,2,2,0,0,1-1.43.57A1.91,1.91,0,0,1,118.78,52.81Z" transform="translate(-5.03 -10.05)"/><path class="cls-1" d="M131.28,52.81a1.89,1.89,0,0,1-.57-1.4V25.22a2.84,2.84,0,0,1,.83-2,2.72,2.72,0,0,1,2-.85h.57a3,3,0,0,1,2.42,1.31L153.43,48V24.34a1.94,1.94,0,0,1,.58-1.42,1.82,1.82,0,0,1,1.4-.59,2,2,0,0,1,2,2V50.53a2.71,2.71,0,0,1-.86,2,2.8,2.8,0,0,1-2,.83H154a2.75,2.75,0,0,1-1.32-.33,2.89,2.89,0,0,1-1-.85l-17-24.52V51.41a1.84,1.84,0,0,1-.59,1.4,2,2,0,0,1-1.42.57A1.92,1.92,0,0,1,131.28,52.81Z" transform="translate(-5.03 -10.05)"/><line class="cls-2" x1="62.88" y1="29.45" x2="62.88" y2="37.43"/><line class="cls-2" x1="66.88" y1="33.44" x2="58.89" y2="33.44"/><path class="cls-3" d="M18.87,10.79H6.07a.28.28,0,0,0-.29.29V23.89a.28.28,0,0,0,.29.29.29.29,0,0,0,.29-.29V11.37H18.87a.28.28,0,0,0,.29-.29A.28.28,0,0,0,18.87,10.79Z" transform="translate(-5.03 -10.05)"/><path class="cls-3" d="M155.67,10.79h12.81a.29.29,0,0,1,.29.29V23.89a.29.29,0,1,1-.58,0V11.37H155.67a.28.28,0,0,1-.29-.29A.29.29,0,0,1,155.67,10.79Z" transform="translate(-5.03 -10.05)"/><path class="cls-3" d="M155.67,63.76h12.81a.28.28,0,0,0,.29-.29V50.67a.29.29,0,1,0-.58,0V63.18H155.67a.29.29,0,0,0-.29.29A.28.28,0,0,0,155.67,63.76Z" transform="translate(-5.03 -10.05)"/><path class="cls-3" d="M18.87,63.76H6.07a.28.28,0,0,1-.29-.29V50.67a.28.28,0,0,1,.29-.29.28.28,0,0,1,.29.29V63.18H18.87a.28.28,0,0,1,.29.29A.28.28,0,0,1,18.87,63.76Z" transform="translate(-5.03 -10.05)"/></svg>